<?xml version="1.0" encoding="utf-8"?>
<!-- Generator: Adobe Illustrator 16.0.0, SVG Export Plug-In . SVG Version: 6.00 Build 0)  -->
<!DOCTYPE svg PUBLIC "-//W3C//DTD SVG 1.1//EN" "http://www.w3.org/Graphics/SVG/1.1/DTD/svg11.dtd">
<svg version="1.1" id="레이어_1" xmlns="http://www.w3.org/2000/svg" xmlns:xlink="http://www.w3.org/1999/xlink" x="0px"
	 y="0px" width="184.356px" height="54.686px" viewBox="0 0 184.356 54.686" enable-background="new 0 0 184.356 54.686"
	 xml:space="preserve">
<g>
	<g>
		<g>
			<path fill="#040000" d="M67.006,23.547c-0.292,6.138-2.226,11.077-5.798,14.811c-3.508,3.639-7.91,5.457-13.204,5.457
				c-2.729,0-5.295-0.553-7.698-1.656c-2.404-1.104-4.531-2.68-6.383-4.727c-1.527-1.786-2.696-3.783-3.508-5.992
				c-0.813-2.273-1.218-4.645-1.218-7.114c0-2.598,0.487-5.067,1.462-7.406c0.974-2.339,2.403-4.434,4.288-6.285
				c1.786-1.786,3.8-3.134,6.042-4.044c2.241-0.877,4.726-1.316,7.455-1.316c3.768,0,7.081,0.943,9.939,2.826
				c2.891,1.917,5.181,4.759,6.87,8.526h-8.04c-1.235-1.591-2.599-2.744-4.093-3.459c-1.494-0.714-3.2-1.072-5.116-1.072
				c-1.592,0-3.069,0.276-4.434,0.829c-1.397,0.584-2.648,1.445-3.752,2.582c-1.202,1.202-2.112,2.566-2.729,4.093
				c-0.617,1.527-0.926,3.118-0.926,4.775c0,1.754,0.276,3.395,0.829,4.92c0.584,1.527,1.429,2.859,2.534,3.995
				c1.136,1.202,2.452,2.128,3.946,2.777c1.429,0.65,2.939,0.975,4.531,0.975c2.371,0,4.434-0.552,6.188-1.656
				c1.818-1.17,3.248-2.891,4.288-5.165H46.883v-6.674H67.006z"/>
			<path fill="#040000" d="M76.748,39.381c-2.826-2.891-4.239-6.432-4.239-10.622c0-1.98,0.341-3.865,1.023-5.652
				c0.714-1.818,1.737-3.41,3.069-4.774c1.364-1.462,2.923-2.55,4.677-3.265c1.721-0.714,3.654-1.072,5.798-1.072
				c1.526,0,2.988,0.228,4.385,0.682c1.462,0.455,2.842,1.169,4.142,2.144v-2.144h6.48v28.454h-6.578v-2.29
				c-1.267,0.942-2.599,1.656-3.995,2.144c-1.333,0.487-2.712,0.73-4.142,0.73C83.147,43.717,79.606,42.273,76.748,39.381z
				 M93.314,22.767c-1.592-1.591-3.508-2.387-5.75-2.387c-2.371,0-4.353,0.779-5.944,2.338c-1.625,1.592-2.437,3.605-2.437,6.042
				c0,2.501,0.812,4.58,2.437,6.237c1.591,1.656,3.573,2.484,5.944,2.484c2.176,0,4.076-0.828,5.701-2.484
				c1.657-1.688,2.485-3.671,2.485-5.944C95.75,26.519,94.938,24.424,93.314,22.767z"/>
			<path fill="#040000" d="M114.057,47.761c-1.3,1.592-3.297,2.388-5.993,2.388l-1.852-0.049v-6.383
				c1.526,0,2.452-0.179,2.777-0.535c0.324-0.293,0.487-1.137,0.487-2.534V14.679h6.431v26.213
				C115.908,43.977,115.291,46.267,114.057,47.761z M109.477,12.389V6.006h6.431v6.383H109.477z"/>
			<path fill="#040000" d="M123.801,12.389V6.006h6.432v6.383H123.801z M123.801,14.679h6.432v28.454h-6.432V14.679z"/>
			<path fill="#040000" d="M142.705,47.761c-1.3,1.592-3.297,2.388-5.993,2.388L134.86,50.1v-6.383c1.527,0,2.452-0.179,2.777-0.535
				c0.324-0.293,0.487-1.137,0.487-2.534V14.679h6.432v26.213C144.557,43.977,143.939,46.267,142.705,47.761z M138.125,12.389V6.006
				h6.432v6.383H138.125z"/>
			<path fill="#040000" d="M155.666,39.381c-2.826-2.891-4.238-6.432-4.238-10.622c0-1.98,0.341-3.865,1.022-5.652
				c0.714-1.818,1.737-3.41,3.069-4.774c1.364-1.462,2.924-2.55,4.678-3.265c1.722-0.714,3.654-1.072,5.798-1.072
				c1.526,0,2.988,0.228,4.386,0.682c1.461,0.455,2.842,1.169,4.141,2.144v-2.144h6.48v28.454h-6.577v-2.29
				c-1.268,0.942-2.6,1.656-3.997,2.144c-1.332,0.487-2.712,0.73-4.141,0.73C162.064,43.717,158.524,42.273,155.666,39.381z
				 M172.232,22.767c-1.592-1.591-3.508-2.387-5.75-2.387c-2.371,0-4.353,0.779-5.944,2.338c-1.624,1.592-2.436,3.605-2.436,6.042
				c0,2.501,0.812,4.58,2.436,6.237c1.592,1.656,3.573,2.484,5.944,2.484c2.176,0,4.076-0.828,5.702-2.484
				c1.656-1.688,2.484-3.671,2.484-5.944C174.668,26.519,173.856,24.424,172.232,22.767z"/>
		</g>
		<g>
			<path fill-rule="evenodd" clip-rule="evenodd" fill="#040000" d="M19.289,3.644c2.039,0,3.692,1.588,3.692,3.547v41.554
				c0,1.957-1.653,3.546-3.692,3.546H4.518c-2.04,0-3.692-1.589-3.692-3.546V7.19c0-1.959,1.652-3.547,3.692-3.547H19.289z"/>
			<path fill="#FFFFFF" d="M19.289,53.071H4.518c-2.466,0-4.472-1.94-4.472-4.326V7.19c0-2.386,2.006-4.327,4.472-4.327h14.771
				c2.466,0,4.472,1.941,4.472,4.327v41.554C23.761,51.13,21.755,53.071,19.289,53.071z M4.518,4.423
				c-1.605,0-2.912,1.241-2.912,2.767v41.554c0,1.525,1.307,2.766,2.912,2.766h14.771c1.606,0,2.913-1.24,2.913-2.766V7.19
				c0-1.526-1.307-2.767-2.913-2.767H4.518z"/>
			<g>
				<path fill="#FFFFFF" d="M16.837,18.499V9.854H3.742V7.047h16.393v11.452H16.837z"/>
			</g>
			<g>
				<path fill="#FFFFFF" d="M20.135,22.199v2.807h-6.197c0.249,1.602,0.959,2.905,2.128,3.907c1.123,0.988,2.51,1.549,4.163,1.684
					v3.054c-1.435,0-2.908-0.352-4.42-1.055c-1.886-0.868-3.165-2.066-3.835-3.593c-0.686,1.526-1.972,2.725-3.858,3.593
					c-1.528,0.703-3.025,1.055-4.49,1.055v-3.031c1.684-0.135,3.095-0.695,4.233-1.684c1.185-1.018,1.894-2.328,2.128-3.93H3.742
					v-2.807H20.135z"/>
			</g>
			<g>
				<path fill="#FFFFFF" d="M20.135,37.329v2.807h-6.197c0.249,1.602,0.959,2.904,2.128,3.907c1.123,0.988,2.51,1.549,4.163,1.684
					v3.055c-1.435,0-2.908-0.352-4.42-1.056c-1.886-0.868-3.165-2.066-3.835-3.593c-0.686,1.526-1.972,2.725-3.858,3.593
					c-1.528,0.704-3.025,1.056-4.49,1.056v-3.032c1.684-0.135,3.095-0.695,4.233-1.684c1.185-1.018,1.894-2.328,2.128-3.93H3.742
					v-2.807H20.135z"/>
			</g>
		</g>
	</g>
</g>
</svg>
