<?xml version="1.0" encoding="utf-8"?>
<!-- Generator: Adobe Illustrator 16.0.0, SVG Export Plug-In . SVG Version: 6.00 Build 0)  -->
<!DOCTYPE svg PUBLIC "-//W3C//DTD SVG 1.1//EN" "http://www.w3.org/Graphics/SVG/1.1/DTD/svg11.dtd">
<svg version="1.1" id="레이어_1" xmlns="http://www.w3.org/2000/svg" xmlns:xlink="http://www.w3.org/1999/xlink" x="0px"
	 y="0px" width="152.834px" height="45.833px" viewBox="0 0 152.834 45.833" enable-background="new 0 0 152.834 45.833"
	 xml:space="preserve">
<style>
path { 
	fill:#bfbebe;
}
</style>
<g>
	<g>
		<g>
			<path fill="#040000" d="M38.339,18.884c-0.292,6.139-2.226,11.076-5.798,14.812c-3.508,3.638-7.91,5.457-13.204,5.457
				c-2.729,0-5.295-0.553-7.698-1.657c-2.404-1.104-4.531-2.68-6.383-4.726c-1.527-1.786-2.696-3.784-3.508-5.993
				c-0.813-2.273-1.218-4.645-1.218-7.113c0-2.598,0.487-5.067,1.462-7.406C2.966,9.918,4.396,7.824,6.28,5.972
				c1.786-1.786,3.8-3.134,6.042-4.044c2.241-0.877,4.726-1.316,7.455-1.316c3.768,0,7.081,0.943,9.939,2.826
				c2.891,1.917,5.181,4.759,6.87,8.526h-8.04c-1.235-1.591-2.599-2.744-4.093-3.459c-1.494-0.714-3.2-1.072-5.116-1.072
				c-1.592,0-3.069,0.276-4.434,0.829c-1.397,0.584-2.648,1.445-3.752,2.582c-1.202,1.202-2.112,2.566-2.729,4.093
				c-0.617,1.527-0.926,3.118-0.926,4.775c0,1.754,0.276,3.395,0.829,4.921c0.584,1.527,1.429,2.858,2.534,3.995
				c1.136,1.202,2.452,2.128,3.946,2.777c1.429,0.65,2.939,0.975,4.531,0.975c2.371,0,4.434-0.553,6.188-1.657
				c1.818-1.169,3.248-2.891,4.288-5.164H18.217v-6.675H38.339z"/>
			<path fill="#040000" d="M48.082,34.718c-2.826-2.891-4.239-6.431-4.239-10.621c0-1.98,0.341-3.865,1.023-5.652
				c0.714-1.818,1.737-3.41,3.069-4.774c1.364-1.462,2.923-2.55,4.677-3.265c1.721-0.714,3.654-1.072,5.798-1.072
				c1.526,0,2.988,0.228,4.385,0.682c1.462,0.455,2.842,1.169,4.142,2.144v-2.144h6.48V38.47H66.84v-2.29
				c-1.267,0.942-2.599,1.657-3.995,2.144c-1.333,0.487-2.712,0.731-4.142,0.731C54.48,39.055,50.939,37.609,48.082,34.718z
				 M64.647,18.104c-1.592-1.591-3.508-2.387-5.75-2.387c-2.371,0-4.353,0.779-5.944,2.338c-1.625,1.592-2.437,3.605-2.437,6.042
				c0,2.502,0.812,4.58,2.437,6.236c1.591,1.656,3.573,2.485,5.944,2.485c2.176,0,4.076-0.829,5.701-2.485
				c1.657-1.688,2.485-3.67,2.485-5.944C67.083,21.855,66.271,19.761,64.647,18.104z"/>
			<path fill="#040000" d="M85.39,43.099c-1.3,1.591-3.297,2.388-5.992,2.388l-1.852-0.049v-6.383c1.526,0,2.452-0.179,2.777-0.536
				c0.324-0.292,0.487-1.137,0.487-2.533V10.016h6.431v26.212C87.242,39.314,86.625,41.604,85.39,43.099z M80.811,7.726V1.343h6.431
				v6.383H80.811z"/>
			<path fill="#040000" d="M95.134,7.726V1.343h6.432v6.383H95.134z M95.134,10.016h6.432V38.47h-6.432V10.016z"/>
			<path fill="#040000" d="M114.039,43.099c-1.3,1.591-3.297,2.388-5.993,2.388l-1.852-0.049v-6.383
				c1.527,0,2.452-0.179,2.777-0.536c0.324-0.292,0.487-1.137,0.487-2.533V10.016h6.432v26.212
				C115.89,39.314,115.273,41.604,114.039,43.099z M109.458,7.726V1.343h6.432v6.383H109.458z"/>
			<path fill="#040000" d="M127,34.718c-2.826-2.891-4.238-6.431-4.238-10.621c0-1.98,0.341-3.865,1.022-5.652
				c0.714-1.818,1.737-3.41,3.069-4.774c1.364-1.462,2.924-2.55,4.678-3.265c1.722-0.714,3.654-1.072,5.798-1.072
				c1.526,0,2.988,0.228,4.386,0.682c1.461,0.455,2.842,1.169,4.141,2.144v-2.144h6.48V38.47h-6.577v-2.29
				c-1.268,0.942-2.6,1.657-3.996,2.144c-1.332,0.487-2.712,0.731-4.141,0.731C133.398,39.055,129.858,37.609,127,34.718z
				 M143.565,18.104c-1.592-1.591-3.508-2.387-5.749-2.387c-2.371,0-4.353,0.779-5.944,2.338c-1.624,1.592-2.436,3.605-2.436,6.042
				c0,2.502,0.812,4.58,2.436,6.236c1.592,1.656,3.573,2.485,5.944,2.485c2.176,0,4.076-0.829,5.701-2.485
				c1.656-1.688,2.484-3.67,2.484-5.944C146.001,21.855,145.189,19.761,143.565,18.104z"/>
		</g>
	</g>
</g>
</svg>
